Coordinates
version=1
nRows=29
nColumns=24
inDegrees=yes

Units are S.I. units (second, meters, Newtons, ...)
Angles are in degrees.

endheader
time	pelvis_tilt	pelvis_list	pelvis_rotation	pelvis_tx	pelvis_ty	pelvis_tz	hip_flexion_r	hip_adduction_r	hip_rotation_r	knee_angle_r	ankle_angle_r	subtalar_angle_r	mtp_angle_r	hip_flexion_l	hip_adduction_l	hip_rotation_l	knee_angle_l	ankle_angle_l	subtalar_angle_l	mtp_angle_l	lumbar_extension	lumbar_bending	lumbar_rotation
      1.26750000	      0.95860561	     -4.60317934	     -6.30207594	      0.03872821	      0.96690750	      0.33963683	    -20.49550916	      6.98104128	      4.27550936	     -7.66185663	     12.15997665	     -0.82467187	      5.70433068	     26.00938646	     -5.09910810	     -6.88204383	     -0.44571694	      4.61188968	     -1.10392859	      3.30695495	     -3.17030295	      8.31222867	     10.55339251
      1.27166667	      0.87359078	     -4.53436626	     -6.38562309	      0.04477813	      0.96606726	      0.33936747	    -20.66969014	      6.79393322	      4.12654053	     -7.82196927	     12.01283084	     -0.43567269	      5.96900798	     26.08220536	     -5.02026066	     -6.80080033	     -0.55812017	      4.56170763	     -1.28960072	      3.35989067	     -3.02011028	      8.22663569	     10.68449035
      1.27583333	      0.79516324	     -4.46154706	     -6.46522430	      0.05088391	      0.96528467	      0.33913092	    -20.87523305	      6.61316803	      4.07459306	     -7.93463357	     11.75970070	     -0.37356576	      6.03762747	     26.17101169	     -4.94542999	     -6.77322419	     -0.77938900	      4.49845550	     -1.39677836	      3.37525523	     -2.86075538	      8.13645460	     10.72655175
      1.28000000	      0.70807952	     -4.39323056	     -6.53767186	      0.05700689	      0.96452017	      0.33886653	    -21.05493752	      6.43534678	      3.98224702	     -8.07064172	     11.47313651	     -0.14113696	      6.19432997	     26.27487062	     -4.87134695	     -6.66145328	     -1.06475546	      4.37987824	     -1.64666685	      3.41293192	     -2.70354647	      8.04506522	     10.83749127
      1.28416667	      0.61446691	     -4.29133854	     -6.61618581	      0.06320048	      0.96379004	      0.33861280	    -21.21260692	      6.22163079	      3.88157582	     -8.23181865	     11.19691839	      0.06812491	      6.37192741	     26.38425102	     -4.76726757	     -6.55214003	     -1.40653729	      4.23757357	     -1.94478650	      3.45777603	     -2.53541707	      7.92841828	     10.93022555
      1.28833333	      0.52159429	     -4.18708885	     -6.69076735	      0.06945052	      0.96309901	      0.33831936	    -21.36106594	      6.00030311	      3.74391072	     -8.40731870	     10.92048681	      0.35497240	      6.70411511	     26.49064695	     -4.65397577	     -6.40061752	     -1.79133958	      4.03202393	     -2.40892957	      3.54559280	     -2.34709875	      7.83957141	     11.04170079
      1.29250000	      0.49929010	     -4.02707660	     -6.77148266	      0.07578605	      0.96252679	      0.33805222	    -21.56418679	      5.70278629	      3.52149336	     -8.60212622	     10.56070245	      0.71785012	     10.54807425	     26.52941427	     -4.48911660	     -6.36801943	     -2.24129344	      3.84604784	     -2.74212352	      4.59951384	     -2.22704892	      7.63064639	     10.98506130
      1.29666667	      0.36248285	     -3.92528826	     -6.84661066	      0.08210307	      0.96187389	      0.33780189	    -21.66650176	      5.50559215	      3.52399694	     -8.77697225	     10.20360724	      0.64149758	     10.60415541	     26.71201846	     -4.39047864	     -6.22413082	     -2.77122186	      3.59868294	     -3.17794491	      4.59894453	     -1.98991366	      7.52405602	     11.17818076
      1.30083333	      0.26449279	     -3.78859894	     -6.91797059	      0.08849078	      0.96130578	      0.33753554	    -21.79551037	      5.26260229	      3.46847479	     -8.96619978	      9.81277795	      0.70948379	     10.70499372	     26.83910550	     -4.24746289	     -6.07112437	     -3.30610528	      3.28975897	     -3.70749187	      4.61100396	     -1.78231864	      7.36546331	     11.27623555
      1.30500000	      0.16788392	     -3.63632898	     -6.98844933	      0.09492924	      0.96078304	      0.33725577	    -21.90800917	      5.00232370	      3.39738405	     -9.18422458	      9.41150696	      0.80142423	     10.84866649	     26.96508437	     -4.08595814	     -5.92624730	     -3.87183064	      2.94606964	     -4.27404404	      4.63655590	     -1.57012999	      7.18875067	     11.35693287
      1.30916667	      0.07104756	     -3.45227279	     -7.07227270	      0.10142305	      0.96031137	      0.33700184	    -21.99684504	      4.70724995	      3.33930516	     -9.43873400	      8.97138376	      0.80484914	     10.93887689	     27.09866541	     -3.90419382	     -5.86971058	     -4.48363061	      2.62652561	     -4.69492600	      4.65336891	     -1.36312083	      6.96222651	     11.41156124
      1.31333333	     -0.03064821	     -3.29757992	     -7.12959461	      0.10791505	      0.95986751	      0.33666743	    -22.06325084	      4.44732181	      3.24403913	     -9.72128557	      8.54775801	      0.94814315	     11.22226281	     27.21528899	     -3.71986953	     -5.62174927	     -5.05849370	      2.14396335	     -5.53648070	      4.71609337	     -1.13554940	      6.79791745	     11.50069138
      1.31750000	     -0.13075884	     -3.09165759	     -7.18156402	      0.11449934	      0.95947335	      0.33633577	    -22.11819260	      4.13827985	      3.13492637	    -10.01660910	      8.08902383	      1.02364448	     11.73078451	     27.33136227	     -3.48571745	     -5.45370953	     -5.65144832	      1.64745373	     -6.23904898	      4.83591768	     -0.89315696	      6.55472369	     11.55567109
      1.32166667	     -0.24514654	     -2.90952474	     -7.22020404	      0.12111159	      0.95911417	      0.33601668	    -22.17390131	      3.87030910	      3.11602627	    -10.27085127	      7.49288519	      0.99983187	     11.96068327	     27.50384456	     -3.28656434	     -5.39173105	     -6.34542424	      1.19965922	     -6.65745111	      4.88581774	     -0.63598815	      6.34359633	     11.61489233
      1.32583333	     -0.35437047	     -2.70780367	     -7.27657815	      0.12771063	      0.95881784	      0.33565852	    -22.16376218	      3.56860411	      3.04008500	    -10.65629531	      6.95417453	      0.99443800	     12.39277679	     27.62956077	     -3.05358778	     -5.22014231	     -6.96687905	      0.67329978	     -7.41378335	      4.98097858	     -0.40340258	      6.12158690	     11.66535260
      1.33000000	     -0.45854176	     -2.44529055	     -7.30050809	      0.13442776	      0.95856654	      0.33526120	    -22.15494706	      3.21499657	      2.91634181	    -11.03726345	      6.45347222	      0.99505764	     13.38491188	     27.73650473	     -2.74313985	     -5.06252828	     -7.55945461	      0.08044505	     -8.13795638	      5.19822936	     -0.12958322	      5.80270575	     11.69263219
      1.33416667	     -0.53075323	     -2.22415797	     -7.30796930	      0.14112059	      0.95839816	      0.33485054	    -22.16716853	      2.90376352	      2.78121269	    -11.41146316	      5.64491169	      0.94404718	     18.64813170	     27.86197466	     -2.48289220	     -5.03082768	     -8.27261609	     -0.38244230	     -8.52292053	      6.25712725	      0.07676722	      5.54832573	     11.71588022
      1.33833333	     -0.67610658	     -2.01145666	     -7.34007421	      0.14781892	      0.95822098	      0.33448162	    -22.08638068	      2.62162748	      2.82421137	    -11.82599201	      4.98724141	      0.80051607	     18.69130430	     28.06204182	     -2.25022495	     -5.01195800	     -8.99548923	     -0.86542417	     -8.93665976	      6.24034400	      0.38176544	      5.31071964	     11.75865336
      1.34250000	     -0.79195059	     -1.77483462	     -7.34352859	      0.15454546	      0.95812077	      0.33404997	    -22.00252030	      2.31749688	      2.79360312	    -12.29243723	      4.27523155	      0.68731483	     18.77346922	     28.21460630	     -1.96974801	     -4.94206315	     -9.68476367	     -1.35012813	     -9.40900228	      6.22981516	      0.65543767	      5.03452128	     11.78299622
      1.34666667	     -0.89815954	     -1.52812924	     -7.35140463	      0.16124979	      0.95809108	      0.33357850	    -21.87306695	      1.99592549	      2.73870759	    -12.85152334	      3.55181308	      0.60056651	     18.96643353	     28.33789134	     -1.67055489	     -4.83674564	    -10.34033300	     -1.82353057	     -9.96044567	      6.22515080	      0.89951609	      4.76049165	     11.78739586
      1.35083333	     -1.00220270	     -1.24862593	     -7.33416305	      0.16801282	      0.95810444	      0.33307066	    -21.72974421	      1.65034730	      2.65919576	    -13.42842179	      2.82410977	      0.52329595	     19.41554256	     28.45730575	     -1.32913902	     -4.75638612	    -10.99379533	     -2.28231066	    -10.45247858	      6.22973122	      1.17364520	      4.43147320	     11.78019442
      1.35500000	     -1.09633177	     -1.00938090	     -7.30626969	      0.17474652	      0.95819103	      0.33256931	    -21.58619762	      1.35902321	      2.64918694	    -14.00761218	      1.93603214	      0.38893460	     19.61419650	     28.59829709	     -1.04130489	     -4.76735390	    -11.72773165	     -2.62768073	    -10.67917193	      6.22866629	      1.41345624	      4.16029104	     11.79136194
      1.35916667	     -1.18863257	     -0.74614944	     -7.27223389	      0.18148057	      0.95832198	      0.33203948	    -21.39739581	      1.04441991	      2.61629290	    -14.66589610	      1.06741893	      0.25046867	     19.82615482	     28.71793181	     -0.72107626	     -4.75557792	    -12.42267568	     -2.96061754	    -10.95624812	      6.22577232	      1.66417089	      3.84967651	     11.78694109
      1.36333333	     -1.18089166	     -0.41542012	     -7.25794263	      0.18823271	      0.95863772	      0.33145147	    -21.25269923	      0.61666463	      2.46434310	    -15.40141419	      0.10191234	      0.34797171	     23.87114074	     28.67354837	     -0.31550280	     -4.75154616	    -12.99837879	     -3.32398700	    -11.35687605	      6.20679033	      1.78749826	      3.45909418	     11.73414899
      1.36750000	     -1.32756958	     -0.18954571	     -7.19136511	      0.19489249	      0.95877939	      0.33086487	    -20.92878441	      0.37187548	      2.48024180	    -16.19067674	     -0.80706099	      0.03479664	     23.94426619	     28.87026974	     -0.03324883	     -4.73999648	    -13.74663832	     -3.49101129	    -11.46504793	      6.20082248	      2.08738220	      3.20804175	     11.74948789
      1.37166667	     -1.38635125	      0.09262096	     -7.14675226	      0.20156951	      0.95909680	      0.33028719	    -20.65767892	      0.04629714	      2.48083138	    -17.03009526	     -1.75027280	     -0.17985381	     23.99892334	     28.92529425	      0.30653595	     -4.78694508	    -14.39945994	     -3.64537775	    -11.56115460	      6.19377539	      2.28697670	      2.87176136	     11.73109475
      1.37583333	     -1.43838336	      0.35714337	     -7.08822185	      0.20820086	      0.95945385	      0.32967186	    -20.35479973	     -0.25816759	      2.46660185	    -17.92570886	     -2.76988570	     -0.34761138	     24.06808709	     28.96939289	      0.63569629	     -4.82676676	    -15.04799673	     -3.77400687	    -11.66728676	      6.18331645	      2.47733781	      2.55811226	     11.70702435
      1.38000000	     -1.49040080	      0.62262589	     -7.02226786	      0.21477903	      0.95984439	      0.32902752	    -20.00711535	     -0.55946823	      2.45491007	    -18.88802872	     -3.82034210	     -0.48731315	     24.15787060	     29.00244720	      0.96905073	     -4.86367136	    -15.67339763	     -3.87153657	    -11.74817606	      6.16874695	      2.64745075	      2.25325488	     11.67587153
      1.38416667	     -1.54384753	      0.86873065	     -6.95288402	      0.22128533	      0.96026603	      0.32835427	    -19.60477007	     -0.84217355	      2.42820463	    -19.93070177	     -4.92810062	     -0.56155610	     24.31891675	     29.01927874	      1.28598556	     -4.89107705	    -16.26436593	     -3.94215096	    -11.80414257	      6.13966930	      2.81745964	      1.98295415	     11.63641975
